# xmcd CD database file
#
# Track frame offsets:
#	150
#	15649
#	21505
#	41947
#	55705
#	78566
#	96692
#	111331
#	124944
#	138583
#	161169
#	179170
#	197804
#
# Disc length: 2827 seconds
#
# Revision: 0
# Processed by: cddbd v1.5.2PL0 Copyright (c) Steve Scherf et al.
# Submitted via: CDex 1.51
#
DISCID=c90b090d
DTITLE=Mitschke and Dietz - Midnight Moods
DYEAR=2008
DGENRE=Jazz
TTITLE0=Fusion Jazz Lounge
TTITLE1=Flute Intermezzo
TTITLE2=My Foolish Heart
TTITLE3=Midnight Moods
TTITLE4=You Never Know
TTITLE5=Stella By Starlight
TTITLE6=Blue Latin Beats
TTITLE7=No More Blues
TTITLE8=Invitations
TTITLE9=Acid Jazz Vibes
TTITLE10=Rain Over Cologne
TTITLE11=On The Highway 
TTITLE12=Upper Manhattan Groove 
EXTD=YEAR: 2008
EXTT0=
EXTT1=
EXTT2=
EXTT3=
EXTT4=
EXTT5=
EXTT6=
EXTT7=
EXTT8=
EXTT9=
EXTT10=
EXTT11=
EXTT12=
PLAYORDER=
